# xmcd
#
# Track frame offsets: 
#        150
#        15196
#        35177
#        53514
#        75631
#        92630
#        115934
#        139003
#        159727
#        172553
#        193353
#        214212
#        235098
#        257238
#
# Disc length: 3708 seconds
#
# Revision: 0
# Processed by: cddbd v1.5.2PL0 Copyright (c) Steve Scherf et al.
# Submitted via: ExactAudioCopy v0.95b4
#
DISCID=b30e7a0e
DTITLE=Clapton, Eric - Reptil
DYEAR=2001
DGENRE=Blues
TTITLE0=Reptil
TTITLE1=Got You On My Mind
TTITLE2=Travelin´Light
TTITLE3=Believe In Life
TTITLE4=Come Back Baby
TTITLE5=Brocken Down
TTITLE6=Find Myself
TTITLE7=I Ain´t Gonna Stand For It
TTITLE8=I Want A Little Girl
TTITLE9=Second Natur
TTITLE10=Don´t Let Me Be Lonely Tonight
TTITLE11=Modern Girl
TTITLE12=Superman Inside
TTITLE13=Son and Sylvia
EXTD=
EXTT0=
EXTT1=
EXTT2=
EXTT3=
EXTT4=
EXTT5=
EXTT6=
EXTT7=
EXTT8=
EXTT9=
EXTT10=
EXTT11=
EXTT12=
EXTT13=
PLAYORDER=
